<svg width="691" height="555" viewBox="0 0 691 555" fill="none" xmlns="http://www.w3.org/2000/svg">
<g clip-path="url(#clip0)">
<path opacity="0.1" d="M405.247 93.7922C361.524 92.2566 319.876 77.9987 280.111 62.3962C240.347 46.7937 200.962 29.5054 158.286 21.2401C130.838 15.9232 99.4438 15.1725 77.3324 30.0378C56.0452 44.3708 49.1679 69.044 45.4725 91.9631C42.6892 109.204 41.0543 127.345 48.6815 143.487C53.9712 154.694 63.3684 164.113 69.8606 174.883C92.472 212.23 76.4947 258.287 51.9918 294.754C40.5071 311.865 27.1646 328.198 18.3011 346.394C9.43765 364.59 5.33018 385.468 13.0857 404.046C20.7805 422.475 39.1087 436.289 58.9569 446.015C99.2817 465.774 146.781 471.425 193.132 474.626C295.704 481.718 398.816 478.646 501.658 475.575C539.72 474.435 577.943 473.282 615.383 467.337C636.177 464.033 657.64 458.798 672.739 446.145C691.898 430.085 696.648 402.886 683.812 382.752C662.268 348.974 602.743 340.586 587.665 304.33C579.382 284.38 587.894 262.157 599.933 243.647C625.767 203.951 669.064 169.122 671.348 123.748C672.915 92.5773 652.094 61.3724 619.91 46.6231C586.178 31.1094 539.388 33.075 514.514 58.6628C488.883 85.0286 443.849 95.1436 405.247 93.7922Z" fill="#D7CEC7"/>
<path d="M294.177 471.282L62.9429 470.142L39.9668 415.697L121.211 409.739L107.051 350.045L267.742 329.003L113.867 274.961L127.46 271.699L374.887 312.479L361.261 405.637L341.784 456.833L294.177 471.282Z" fill="#D7CEC7"/>
<path d="M66.4895 447.339C66.4895 447.339 80.6765 445.046 89.1887 455.174C89.1887 455.174 82.9464 460.143 69.5161 453.263L66.4895 447.339Z" fill="#D7CEC7"/>
<path d="M65.0032 447.114C65.0032 447.114 55.9506 458.368 60.4094 470.9C60.4094 470.9 67.7866 467.917 68.5905 452.724L65.0032 447.114Z" fill="#D7CEC7"/>
<path d="M56.8694 428.611C56.8694 428.611 62.5442 418.093 85.2433 432.815C85.2433 432.815 82.2168 439.886 72.1913 439.312C62.1659 438.739 59.5176 434.153 56.8694 428.611Z" fill="#D7CEC7"/>
<path d="M55.4035 427.853C55.4035 427.853 43.6283 426.488 42.4866 453.721C42.4866 453.721 49.9516 455.284 55.2548 446.67C60.5581 438.057 58.3827 433.224 55.4035 427.853Z" fill="#D7CEC7"/>
<path d="M48.5464 406.128C48.5464 406.128 55.167 387.591 79.1902 400.777C79.1902 400.777 73.7046 417.786 51.0055 412.435L48.5464 406.128Z" fill="#D7CEC7"/>
<path d="M41.1692 378.418C41.1692 378.418 53.6537 359.689 75.7854 377.053C75.7854 377.053 68.0299 394.635 43.0608 385.079L41.1692 378.418Z" fill="#D7CEC7"/>
<path d="M38.521 352.045C38.521 352.045 53.0863 334.839 75.0018 352.045C75.0018 352.045 61.1931 367.143 38.521 356.441V352.045Z" fill="#D7CEC7"/>
<path d="M36.251 326.43C36.251 326.43 51.0054 308.466 72.0021 325.475C72.0021 325.475 55.3561 341.336 36.251 330.634V326.43Z" fill="#D7CEC7"/>
<path d="M37.5752 303.688C37.5752 303.688 53.1133 280.565 72.7589 296.235C72.7589 296.235 56.1128 316.11 37.5752 308.084V303.688Z" fill="#D7CEC7"/>
<path d="M41.1692 277.125C41.1692 277.125 57.6261 254.192 76.7312 271.774C76.7312 271.774 57.2478 291.649 41.1692 281.329V277.125Z" fill="#D7CEC7"/>
<path d="M46.6549 253.38C46.6549 253.38 66.1384 231.826 83.1357 240.412C83.1357 240.412 62.8348 263.304 45.8037 259.099L46.6549 253.38Z" fill="#D7CEC7"/>
<path d="M53.4647 230.87C53.4647 230.87 75.9477 204.47 89.0267 213.288C89.0267 213.288 72.4617 233.764 51.8704 235.812L53.4647 230.87Z" fill="#D7CEC7"/>
<path d="M63.2941 204.764C63.2941 204.764 82.9734 183.21 97.3495 188.56C97.3495 188.56 80.5143 210.92 60.6526 211.493L63.2941 204.764Z" fill="#D7CEC7"/>
<path d="M72.1914 180.343C72.1914 180.343 93.9448 159.703 103.403 163.334C103.403 163.334 87.7025 186.267 71.2456 184.929L72.1914 180.343Z" fill="#D7CEC7"/>
<path d="M80.8928 157.792C80.8928 157.792 99.6196 133.133 109.841 135.044C109.841 135.044 98.4847 157.028 80.8928 160.297V157.792Z" fill="#D7CEC7"/>
<path d="M90.3371 127.386C90.3371 127.386 106.889 108.487 115.833 108.528C115.833 108.528 102.768 133.781 89.6548 133.549L90.3371 127.386Z" fill="#D7CEC7"/>
<path d="M95.9309 107.142L111.922 67.7745C111.922 67.7745 112.719 103.361 93.8975 114.445L95.9309 107.142Z" fill="#D7CEC7"/>
<path d="M102.423 63.7271C102.423 63.7271 105.072 30.85 103.369 28.1745C103.369 28.1745 114.8 55.5096 102.315 78.2512L102.423 63.7271Z" fill="#D7CEC7"/>
<path d="M47.9249 405.691C47.9249 405.691 31.3464 395.31 20.6116 420.707C20.6116 420.707 35.366 430.604 49.8773 412.169L47.9249 405.691Z" fill="#D7CEC7"/>
<path d="M40.6355 377.36C40.6355 377.36 20.3008 367.989 10.4375 394.505C10.4375 394.505 26.1445 405.425 42.4865 384.062L40.6355 377.36Z" fill="#D7CEC7"/>
<path d="M37.5753 353.622C37.5753 353.622 23.01 336.415 1.09448 353.622C1.09448 353.622 14.9031 368.719 37.5753 358.017V353.622Z" fill="#D7CEC7"/>
<path d="M35.7512 326.43C35.7512 326.43 20.9967 308.466 0 325.475C0 325.475 16.646 341.336 35.7512 330.634V326.43Z" fill="#D7CEC7"/>
<path d="M37.5752 304.344C37.5752 304.344 27.2255 278.442 4.729 289.581C4.729 289.581 16.8893 312.548 36.6564 308.644L37.5752 304.344Z" fill="#D7CEC7"/>
<path d="M42.473 276.995C42.473 276.995 32.1841 250.643 9.37012 262.86C9.37012 262.86 23.3409 287.014 41.4597 281.063L42.473 276.995Z" fill="#D7CEC7"/>
<path d="M48.8505 253.509C48.8505 253.509 44.7971 224.618 25.8811 222.031C25.8811 222.031 29.894 252.499 46.3036 258.717L48.8505 253.509Z" fill="#D7CEC7"/>
<path d="M53.9441 230.925C53.9441 230.925 52.3633 196.116 36.7239 194.901C36.7239 194.901 37.2508 221.322 52.1809 235.852L53.9441 230.925Z" fill="#D7CEC7"/>
<path d="M64.9155 203.788C64.9155 203.788 60.2541 174.842 45.324 171.306C45.324 171.306 47.175 199.338 63.436 210.893L64.9155 203.788Z" fill="#D7CEC7"/>
<path d="M73.9615 180.582C73.9615 180.582 73.8061 150.428 64.6859 145.998C64.6859 145.998 59.0314 173.299 71.32 184.431L73.9615 180.582Z" fill="#D7CEC7"/>
<path d="M81.5887 157.451C81.5887 157.451 80.3118 126.403 70.8674 122.028C70.8674 122.028 67.6382 146.599 80.1767 159.485L81.5887 157.451Z" fill="#D7CEC7"/>
<path d="M91.6545 129.864C91.6545 129.864 91.6004 104.61 84.8582 98.6859C84.8582 98.6859 78.1566 126.349 88.1347 134.942L91.6545 129.864Z" fill="#D7CEC7"/>
<path d="M95.1404 105.9L88.5806 63.8705C88.5806 63.8705 79.6699 98.3105 95.4512 113.49L95.1404 105.9Z" fill="#D7CEC7"/>
<path d="M96.4173 64.123C96.4173 64.123 79.5821 35.8666 79.9266 32.727C79.9266 32.727 81.7169 62.3416 102.896 77.0909L96.4173 64.123Z" fill="#D7CEC7"/>
<path d="M98.39 55.7758C98.39 55.7758 82.5006 15.6434 75.3125 12.3946C75.3125 12.3946 98.0116 24.0521 99.7141 54.6291L98.39 55.7758Z" fill="#D7CEC7"/>
<path d="M89.5738 133.788L88.4861 133.454C101.896 89.2739 105.24 61.1062 97.9103 54.0421L98.6872 53.2095C106.463 60.6626 103.308 88.5232 89.5738 133.788Z" fill="#444053"/>
<path d="M52.6472 237.231L51.0393 236.651C52.4648 232.604 53.9983 228.495 55.6062 224.448C69.604 189.202 81.521 156.414 89.1617 131.242L90.5602 130.56C82.9059 155.779 71.1983 189.823 57.187 225.116C55.5859 229.089 54.0591 233.177 52.6472 237.231Z" fill="#444053"/>
<path d="M86.4798 480.4C86.2636 480.161 64.5305 455.434 49.3775 413.22C40.4987 388.505 35.5574 362.524 34.7379 336.245C33.6975 303.395 40.5208 266.716 52.2081 233.395L53.4782 234.897C27.2391 309.681 37.6631 373.763 51.492 412.353C66.4829 454.185 87.9728 478.639 88.1822 478.885L86.4798 480.4Z" fill="#444053"/>
<path d="M426.102 427.901C426.102 427.901 410.787 446.786 422.947 475.336L300.669 528.914L288.935 531.398L283.53 507.51L287.144 477.363V460.887L426.102 427.901Z" fill="#D5D6DB"/>
<path d="M39.9668 415.697L209.211 384.526L433.466 420.618L294.177 471.282L39.9668 415.697Z" fill="#D7CEC7"/>
<path d="M39.9668 415.697L209.211 384.526L433.466 420.618L294.177 471.282L39.9668 415.697Z" fill="#D7CEC7"/>
<path d="M39.9668 415.69C39.9668 415.69 24.1382 445.988 42.3786 473.971L293.353 528.914C293.353 528.914 277.774 504.78 294.157 471.282L39.9668 415.69Z" fill="#D7CEC7"/>
<path opacity="0.1" d="M39.9668 415.69C39.9668 415.69 24.1382 445.988 42.3786 473.971L293.353 528.914C293.353 528.914 277.774 504.78 294.157 471.282L39.9668 415.69Z" fill="#76323F"/>
<path opacity="0.1" d="M47.4452 426.194C47.4452 426.194 38.3993 448.363 47.4452 462.709V426.194Z" fill="#76323F"/>
<path d="M293.353 528.914L433.466 468.511C433.466 468.511 441.302 470.217 436.236 476.019C431.169 481.82 296.055 534.715 296.055 534.715L42.3784 473.971L293.353 528.914Z" fill="#D7CEC7"/>
<path opacity="0.1" d="M293.353 528.914L433.466 468.511C433.466 468.511 441.302 470.217 436.236 476.019C431.169 481.82 296.055 534.715 296.055 534.715L42.3784 473.971L293.353 528.914Z" fill="#76323F"/>
<path opacity="0.1" d="M281.868 477.384C281.868 477.384 268.357 493.764 281.868 518.335V477.384Z" fill="#76323F"/>
<path opacity="0.1" d="M347.282 477.107L286.677 497.534L286.891 498.181L347.495 477.754L347.282 477.107Z" fill="#76323F"/>
<path opacity="0.1" d="M359.42 475.074L286.658 503.028L286.898 503.666L359.661 475.712L359.42 475.074Z" fill="#76323F"/>
<path opacity="0.1" d="M370.568 474.976L287.064 509.507L287.32 510.139L370.824 475.608L370.568 474.976Z" fill="#76323F"/>
<path opacity="0.1" d="M382.691 472.019L288.039 515.216L288.317 515.838L382.969 472.641L382.691 472.019Z" fill="#76323F"/>
<path opacity="0.1" d="M392.876 472.033L288.788 517.998L289.058 518.623L393.146 472.658L392.876 472.033Z" fill="#76323F"/>
<path opacity="0.1" d="M415.153 468.211L290.357 522.666L290.625 523.292L415.421 468.837L415.153 468.211Z" fill="#76323F"/>
<path opacity="0.3" d="M102.842 419.028L221.742 393.775L294.177 407.766L196.746 439.504L102.842 419.028Z" fill="white"/>
<path d="M433.466 420.618C433.466 420.618 439.614 423.123 436.006 426.993C432.399 430.863 294.157 471.282 294.157 471.282L433.466 420.618Z" fill="#D7CEC7"/>
<path d="M493.18 362.256C493.18 362.256 477.871 381.134 490.031 409.691L367.753 463.269L356.019 465.767L350.614 441.879L354.282 411.739V395.242L493.18 362.256Z" fill="#D5D6DB"/>
<path d="M107.051 350.045L276.288 318.881L500.55 354.973L361.261 405.637L107.051 350.045Z" fill="#76323F"/>
<path d="M107.024 350.045C107.024 350.045 91.1884 380.343 109.429 408.326L360.403 463.269C360.403 463.269 344.831 439.115 361.234 405.63L107.024 350.045Z" fill="#76323F"/>
<path opacity="0.1" d="M114.523 360.549C114.523 360.549 105.483 382.711 114.523 397.064V360.549Z" fill="#76323F"/>
<path d="M360.43 463.269L500.55 402.866C500.55 402.866 508.38 404.572 503.313 410.374C498.246 416.175 363.132 469.07 363.132 469.07L109.456 408.326L360.43 463.269Z" fill="#76323F"/>
<path opacity="0.1" d="M348.945 411.739C348.945 411.739 335.434 428.119 348.945 452.69V411.739Z" fill="#76323F"/>
<path opacity="0.1" d="M414.364 411.469L353.76 431.896L353.973 432.544L414.578 412.116L414.364 411.469Z" fill="#76323F"/>
<path opacity="0.1" d="M426.512 409.433L353.749 437.387L353.989 438.025L426.752 410.071L426.512 409.433Z" fill="#76323F"/>
<path opacity="0.1" d="M437.65 409.325L354.145 443.857L354.401 444.489L437.906 409.957L437.65 409.325Z" fill="#76323F"/>
<path opacity="0.1" d="M449.78 406.37L355.127 449.567L355.406 450.189L450.058 406.992L449.78 406.37Z" fill="#76323F"/>
<path opacity="0.1" d="M459.955 406.375L355.867 452.34L356.138 452.965L460.226 407.001L459.955 406.375Z" fill="#76323F"/>
<path opacity="0.1" d="M482.237 402.553L357.442 457.008L357.71 457.635L482.505 403.18L482.237 402.553Z" fill="#76323F"/>
<path opacity="0.45" d="M169.926 353.383L288.826 328.13L361.261 342.121L263.83 373.859L169.926 353.383Z" fill="white"/>
<path d="M500.55 354.973C500.55 354.973 506.691 357.478 503.09 361.341C499.489 365.204 361.261 405.63 361.261 405.63L500.55 354.973Z" fill="#76323F"/>
<path d="M499.53 287.158C499.53 287.158 484.215 321.059 496.375 349.609L374.097 388.171L362.389 390.676L356.985 366.788L360.599 336.641V320.144L499.53 287.158Z" fill="#D5D6DB"/>
<path d="M113.421 274.954L282.665 243.783L506.927 279.875L367.632 330.539L113.421 274.954Z" fill="#D7CEC7"/>
<path d="M113.421 274.947C113.421 274.947 97.5658 305.245 115.806 333.228L366.78 388.171C366.78 388.171 351.202 364.017 367.605 330.539L113.421 274.947Z" fill="#D7CEC7"/>
<path opacity="0.1" d="M113.421 274.947C113.421 274.947 97.5658 305.245 115.806 333.228L366.78 388.171C366.78 388.171 351.202 364.017 367.605 330.539L113.421 274.947Z" fill="#76323F"/>
<path opacity="0.1" d="M120.9 285.451C120.9 285.451 111.854 307.62 120.9 321.966V285.451Z" fill="#76323F"/>
<path d="M366.807 388.171L506.921 342.783C506.921 342.783 514.757 344.49 509.69 350.291C504.624 356.092 369.51 393.973 369.51 393.973L115.833 333.228L366.807 388.171Z" fill="#D7CEC7"/>
<path opacity="0.1" d="M366.807 388.171L506.921 342.783C506.921 342.783 514.757 344.49 509.69 350.291C504.624 356.092 369.51 393.973 369.51 393.973L115.833 333.228L366.807 388.171Z" fill="#76323F"/>
<path opacity="0.1" d="M355.323 336.641C355.323 336.641 341.811 353.021 355.323 377.592V336.641Z" fill="#76323F"/>
<path opacity="0.1" d="M420.743 336.37L360.139 356.797L360.352 357.444L420.957 337.017L420.743 336.37Z" fill="#76323F"/>
<path opacity="0.1" d="M432.886 334.337L360.124 362.291L360.364 362.929L433.126 334.975L432.886 334.337Z" fill="#76323F"/>
<path opacity="0.1" d="M444.018 334.233L360.513 368.764L360.769 369.396L444.274 334.865L444.018 334.233Z" fill="#76323F"/>
<path opacity="0.1" d="M456.158 331.271L361.505 374.468L361.783 375.09L456.436 331.893L456.158 331.271Z" fill="#76323F"/>
<path opacity="0.1" d="M466.336 331.283L362.248 377.248L362.519 377.873L466.607 331.909L466.336 331.283Z" fill="#76323F"/>
<path opacity="0.1" d="M488.616 327.465L363.821 381.921L364.089 382.547L488.884 328.092L488.616 327.465Z" fill="#76323F"/>
<path opacity="0.3" d="M176.297 278.285L295.197 253.032L367.632 267.023L270.201 298.761L176.297 278.285Z" fill="white"/>
<path d="M506.921 279.875C506.921 279.875 513.068 282.38 509.461 286.25C505.853 290.12 367.632 330.539 367.632 330.539L506.921 279.875Z" fill="#D7CEC7"/>
<path d="M209.71 72.6886C209.71 72.6886 184.039 71.1257 187.038 89.3217C187.038 89.3217 186.437 92.5364 189.322 93.997C189.322 93.997 189.369 92.632 191.956 93.1029C192.88 93.2631 193.819 93.309 194.753 93.2394C196.013 93.1523 197.21 92.654 198.165 91.8197C198.165 91.8197 205.387 88.803 208.197 76.8725C208.197 76.8725 210.278 74.2721 210.224 73.6032L205.873 75.4733C205.873 75.4733 207.353 78.6334 206.191 81.2611C206.191 81.2611 206.049 75.5894 205.211 75.719C205.042 75.719 202.961 76.8179 202.961 76.8179C202.961 76.8179 205.508 82.3259 203.583 86.3254C203.583 86.3254 204.313 79.5412 202.164 77.2138L199.111 79.0156C199.111 79.0156 202.09 84.701 200.07 89.3422C200.07 89.3422 200.59 82.2235 198.469 79.4524L195.699 81.6365C195.699 81.6365 198.503 87.24 196.793 91.0895C196.793 91.0895 196.571 82.8036 195.105 82.1757C195.105 82.1757 192.679 84.3325 192.314 85.2198C192.314 85.2198 194.233 89.3149 193.037 91.4375C193.037 91.4375 192.314 85.9159 191.686 85.8886C191.686 85.8886 189.274 89.5469 189.024 92.0313C189.141 89.7152 189.856 87.4703 191.098 85.5201C189.708 85.7858 188.426 86.4573 187.41 87.4516C187.41 87.4516 187.781 84.8648 191.7 84.6396C191.7 84.6396 193.693 81.8617 194.226 81.6979C194.226 81.6979 190.328 81.3635 187.97 82.4214C187.97 82.4214 190.051 79.9848 194.936 81.0564L197.638 78.804C197.638 78.804 192.517 78.1215 190.342 78.8791C190.342 78.8791 192.848 76.7224 198.374 78.2922L201.354 76.4971C201.354 76.4971 196.983 75.5484 194.382 75.8897C194.382 75.8897 197.124 74.3949 202.225 76.0125L204.346 75.0502C204.346 75.0502 201.151 74.4154 200.212 74.313C199.273 74.2107 199.226 73.9513 199.226 73.9513C201.254 73.6148 203.334 73.851 205.238 74.6338C205.238 74.6338 209.798 72.9753 209.71 72.6886Z" fill="#D7CEC7"/>
<path opacity="0.1" d="M570.87 147.479C570.87 147.479 545.198 145.916 548.198 164.113C548.198 164.113 547.597 167.327 550.481 168.788C550.481 168.788 550.529 167.423 553.116 167.894C554.04 168.05 554.979 168.096 555.913 168.03C557.161 167.937 558.346 167.439 559.291 166.611C559.291 166.611 566.519 163.594 569.323 151.663C569.323 151.663 571.404 149.063 571.35 148.394L567.012 150.264C567.012 150.264 568.492 153.424 567.33 156.052C567.33 156.052 567.188 150.38 566.357 150.51C566.188 150.51 564.101 151.609 564.101 151.609C564.101 151.609 566.648 157.117 564.729 161.116C564.729 161.116 565.459 154.332 563.304 152.005L560.25 153.806C560.25 153.806 563.229 159.492 561.209 164.133C561.209 164.133 561.73 157.014 559.608 154.243L556.845 156.427C556.845 156.427 559.642 162.031 557.933 165.88C557.933 165.88 557.71 157.594 556.244 156.967C556.244 156.967 553.825 159.123 553.454 160.011C553.454 160.011 555.372 164.106 554.183 166.228C554.183 166.228 553.454 160.707 552.832 160.679C552.832 160.679 550.421 164.338 550.171 166.822C550.288 164.505 551.005 162.26 552.251 160.311C550.86 160.577 549.575 161.249 548.556 162.242C548.556 162.242 548.934 159.656 552.846 159.43C552.846 159.43 554.839 156.653 555.372 156.482C555.372 156.482 551.481 156.154 549.117 157.212C549.117 157.212 551.197 154.776 556.082 155.847L558.784 153.595C558.784 153.595 553.656 152.912 551.488 153.67C551.488 153.67 553.988 151.513 559.52 153.083L562.493 151.288C562.493 151.288 558.122 150.339 555.521 150.681C555.521 150.681 558.264 149.186 563.364 150.803L565.492 149.841C565.492 149.841 562.29 149.206 561.351 149.104C560.412 149.001 560.365 148.742 560.365 148.742C562.393 148.401 564.475 148.638 566.377 149.425C566.377 149.425 570.951 147.766 570.87 147.479Z" fill="#D7CEC7"/>
<path opacity="0.1" d="M252.947 185.1C252.947 185.1 241.76 161.669 227.519 173.217C227.519 173.217 224.445 174.255 224.593 177.51C224.593 177.51 225.776 176.889 226.62 179.401C226.936 180.289 227.353 181.136 227.863 181.926C228.554 182.997 229.572 183.812 230.761 184.247C230.761 184.247 236.889 189.147 248.569 185.803C248.569 185.803 251.832 186.37 252.366 185.974L248.637 183.059C248.637 183.059 246.61 185.906 243.786 186.158C243.786 186.158 248.623 183.271 248.103 182.602C247.995 182.466 246.076 181.148 246.076 181.148C246.076 181.148 242.557 186.083 238.166 186.335C238.166 186.335 244.381 183.674 245.34 180.636L242.3 178.821C242.3 178.821 238.834 184.227 233.842 184.704C233.842 184.704 240.246 181.694 241.604 178.473L238.375 177.108C238.375 177.108 234.896 182.309 230.734 182.684C230.734 182.684 237.787 178.446 237.612 176.842C237.612 176.842 234.565 175.763 233.619 175.866C233.619 175.866 231.038 179.544 228.606 179.544C228.606 179.544 233.018 176.207 232.747 175.668C232.747 175.668 228.41 175.326 226.127 176.35C228.184 175.317 230.474 174.846 232.768 174.985C231.858 173.889 230.651 173.085 229.295 172.671C229.295 172.671 231.714 171.743 233.815 175.081C233.815 175.081 237.193 175.483 237.591 175.872C237.591 175.872 235.977 172.282 233.916 170.719C233.916 170.719 237.037 171.354 238.463 176.18L241.739 177.49C241.739 177.49 239.854 172.63 238.118 171.095C238.118 171.095 241.199 172.248 242.543 177.92L245.543 179.667C245.543 179.667 244.239 175.347 242.672 173.224C242.672 173.224 245.3 174.917 246.387 180.2L248.259 181.606C248.259 181.606 247.245 178.473 246.907 177.599C246.57 176.726 246.739 176.548 246.739 176.548C248.024 178.169 248.838 180.118 249.09 182.179C249.09 182.179 252.704 185.305 252.947 185.1Z" fill="#D7CEC7"/>
<path opacity="0.1" d="M512.217 114.377C512.217 114.377 501.036 90.9461 486.789 102.494C486.789 102.494 483.722 103.532 483.863 106.787C483.863 106.787 485.052 106.173 485.89 108.678C486.205 109.57 486.625 110.42 487.14 111.21C487.829 112.279 488.844 113.091 490.031 113.524C490.031 113.524 496.166 118.424 507.839 115.087C507.839 115.087 511.102 115.647 511.643 115.251L507.934 112.33C507.934 112.33 505.907 115.182 503.09 115.435C503.09 115.435 507.921 112.541 507.4 111.872C507.292 111.736 505.374 110.418 505.374 110.418C505.374 110.418 501.861 115.353 497.463 115.606C497.463 115.606 503.685 112.944 504.644 109.913L501.557 108.112C501.557 108.112 498.098 113.51 493.098 113.995C493.098 113.995 499.503 110.978 500.868 107.757L497.632 106.392C497.632 106.392 494.152 111.599 489.998 111.968C489.998 111.968 497.044 107.729 496.868 106.132C496.868 106.132 493.828 105.047 492.882 105.156C492.882 105.156 490.302 108.828 487.863 108.828C487.863 108.828 492.281 105.491 492.011 104.951C492.011 104.951 487.674 104.61 485.383 105.634C487.441 104.6 489.731 104.13 492.024 104.269C491.118 103.172 489.913 102.368 488.559 101.955C488.559 101.955 490.977 101.027 493.078 104.365C493.078 104.365 496.456 104.774 496.855 105.163C496.855 105.163 495.24 101.566 493.173 100.003C493.173 100.003 496.294 100.645 497.719 105.497L501.003 106.808C501.003 106.808 499.118 101.942 497.382 100.406C497.382 100.406 500.462 101.559 501.8 107.231L504.806 108.978C504.806 108.978 503.495 104.665 501.928 102.535C501.928 102.535 504.563 104.228 505.644 109.511L507.515 110.917C507.515 110.917 506.509 107.784 506.164 106.91C505.819 106.037 505.995 105.866 505.995 105.866C507.277 107.488 508.088 109.437 508.339 111.497C508.339 111.497 512.008 114.596 512.217 114.377Z" fill="#D7CEC7"/>
<path opacity="0.1" d="M547.948 230.276C547.948 230.276 536.767 206.838 522.499 218.387C522.499 218.387 519.432 219.424 519.574 222.68C519.574 222.68 520.763 222.066 521.601 224.57C521.914 225.462 522.331 226.312 522.844 227.103C523.533 228.171 524.548 228.984 525.735 229.416C525.735 229.416 531.869 234.324 543.55 230.979C543.55 230.979 546.806 231.546 547.347 231.143L543.618 228.229C543.618 228.229 541.591 231.082 538.767 231.334C538.767 231.334 543.597 228.44 543.077 227.771C542.969 227.635 541.051 226.318 541.051 226.318C541.051 226.318 537.538 231.252 533.14 231.512C533.14 231.512 539.362 228.843 540.321 225.813L537.274 223.997C537.274 223.997 533.815 229.403 528.816 229.88C528.816 229.88 535.22 226.864 536.585 223.642L533.349 222.277C533.349 222.277 529.87 227.478 525.715 227.853C525.715 227.853 532.768 223.615 532.592 222.011C532.592 222.011 529.546 220.926 528.6 221.035C528.6 221.035 526.019 224.707 523.58 224.707C523.58 224.707 527.998 221.369 527.728 220.83C527.728 220.83 523.391 220.489 521.101 221.513C523.161 220.48 525.453 220.009 527.749 220.148C526.841 219.049 525.633 218.244 524.276 217.834C524.276 217.834 526.695 216.899 528.796 220.243C528.796 220.243 532.173 220.646 532.572 221.035C532.572 221.035 530.957 217.445 528.897 215.875C528.897 215.875 532.018 216.517 533.444 221.369L536.72 222.68C536.72 222.68 534.835 217.813 533.099 216.285C533.099 216.285 536.18 217.431 537.517 223.11L540.524 224.85C540.524 224.85 539.213 220.537 537.646 218.407C537.646 218.407 540.28 220.1 541.368 225.389L543.239 226.754C543.239 226.754 542.226 223.622 541.888 222.748C541.55 221.874 541.719 221.704 541.719 221.704C543.004 223.324 543.816 225.274 544.064 227.335C544.064 227.335 547.739 230.481 547.948 230.276Z" fill="#D7CEC7"/>
<path opacity="0.1" d="M136.431 535.207C145.009 535.207 151.963 534.422 151.963 533.453C151.963 532.484 145.009 531.699 136.431 531.699C127.854 531.699 120.9 532.484 120.9 533.453C120.9 534.422 127.854 535.207 136.431 535.207Z" fill="#D7CEC7"/>
<path opacity="0.1" d="M34.6163 505.394C43.194 505.394 50.1477 504.609 50.1477 503.64C50.1477 502.671 43.194 501.886 34.6163 501.886C26.0386 501.886 19.085 502.671 19.085 503.64C19.085 504.609 26.0386 505.394 34.6163 505.394Z" fill="#D7CEC7"/>
<path opacity="0.1" d="M214.041 555.007C222.619 555.007 229.572 554.221 229.572 553.253C229.572 552.284 222.619 551.499 214.041 551.499C205.463 551.499 198.51 552.284 198.51 553.253C198.51 554.221 205.463 555.007 214.041 555.007Z" fill="#D7CEC7"/>
<path opacity="0.1" d="M611.749 511.878C620.327 511.878 627.28 511.093 627.28 510.124C627.28 509.155 620.327 508.37 611.749 508.37C603.171 508.37 596.218 509.155 596.218 510.124C596.218 511.093 603.171 511.878 611.749 511.878Z" fill="#D7CEC7"/>
<path opacity="0.1" d="M482.505 503.367C491.083 503.367 498.037 502.582 498.037 501.613C498.037 500.644 491.083 499.859 482.505 499.859C473.928 499.859 466.974 500.644 466.974 501.613C466.974 502.582 473.928 503.367 482.505 503.367Z" fill="#D7CEC7"/>
<path opacity="0.1" d="M398.897 544.878C409.042 544.878 417.266 543.451 417.266 541.691C417.266 539.93 409.042 538.503 398.897 538.503C388.752 538.503 380.528 539.93 380.528 541.691C380.528 543.451 388.752 544.878 398.897 544.878Z" fill="#D7CEC7"/>
<path d="M407.092 509.653C407.092 509.653 381.514 523.003 394.729 538.729C394.729 538.729 395.972 542.141 399.566 541.902C399.566 541.902 398.85 540.578 401.592 539.52C402.568 539.139 403.496 538.642 404.356 538.039C405.517 537.228 406.385 536.056 406.828 534.702C406.828 534.702 412.057 527.631 408.004 514.547C408.004 514.547 408.531 510.848 408.071 510.247L404.964 514.554C404.964 514.554 408.173 516.731 408.544 519.932C408.544 519.932 405.166 514.561 404.491 515.154C404.342 515.277 402.95 517.509 402.95 517.509C402.95 517.509 408.517 521.324 408.929 526.279C408.929 526.279 405.794 519.338 402.41 518.349L400.471 521.843C400.471 521.843 406.551 525.583 407.227 531.207C407.227 531.207 403.693 524.075 400.086 522.635L398.66 526.327C398.66 526.327 404.524 530.095 405.065 534.777C405.065 534.777 400.16 526.948 398.397 527.194C398.397 527.194 397.289 530.661 397.438 531.733C397.438 531.733 401.579 534.531 401.653 537.282C401.653 537.282 397.83 532.402 397.242 532.723C397.242 532.723 396.999 537.63 398.174 540.182C398.174 540.182 396.147 536.538 396.478 532.723C395.294 533.781 394.441 535.167 394.026 536.708C394.026 536.708 392.925 534.012 396.553 531.528C396.553 531.528 396.897 527.713 397.316 527.242C397.316 527.242 393.391 529.18 391.722 531.555C391.722 531.555 392.337 528.013 397.661 526.252L399.012 522.512C399.012 522.512 393.688 524.792 392.047 526.798C392.047 526.798 393.229 523.283 399.431 521.597L401.268 518.185C401.268 518.185 396.539 519.796 394.229 521.597C394.229 521.597 396.019 518.574 401.836 517.181L403.329 515.032C403.329 515.032 399.897 516.267 398.937 516.71C397.978 517.154 397.789 516.936 397.789 516.936C399.543 515.437 401.673 514.459 403.943 514.11C403.943 514.11 407.328 509.885 407.092 509.653Z" fill="#D7CEC7"/>
<path d="M483.005 257.509C478.587 245.38 454.267 244.241 443.714 247.332C436.215 249.537 420.407 252.021 411.963 253.27L411.415 252.745C412.51 252.417 412.537 251.612 412.402 250.418C412.323 248.843 412.346 247.266 412.469 245.694C417.644 247.319 422.251 243.476 422.251 243.476C428.332 240.746 426.697 229.061 427.859 225.867C428.73 223.478 429.669 209.405 430.088 202.388H430.176L430.223 200.034C430.284 199.017 430.311 198.423 430.311 198.423C430.311 198.423 430.906 181.264 432.067 177.79C433.148 174.596 434.027 158.502 434.162 155.95C434.162 155.731 434.162 155.615 434.162 155.615L434.074 154.127C434.135 153.042 434.162 151.834 434.155 150.564C434.155 144.729 433.554 137.378 433.479 136.191C433.479 136.02 433.479 135.815 433.479 135.569C433.527 133.078 433.216 120.602 422.711 115.886C418.84 114.138 414.185 112.057 409.679 110.029C408.517 99.894 405.862 89.8131 406.092 79.6026C406.092 78.0669 406.227 76.5313 406.376 75.0024C406.376 75.446 406.328 75.8965 406.322 76.3675C406.322 77.3571 406.322 78.3536 406.322 79.3433C406.72 66.5733 411.496 53.735 411.051 41.238C411.01 42.4597 410.922 43.6883 410.807 44.9168C411.041 40.6898 410.603 36.4524 409.51 32.3652C409.105 30.9251 408.558 29.4372 407.389 28.4749C406.284 27.6998 405.017 27.1929 403.687 26.9938C400.49 26.1671 397.242 25.556 393.965 25.1646C393.467 23.6247 392.728 22.1753 391.776 20.8716C384.926 11.3708 374.779 2.44344 362.781 0.395877C356.762 -0.627907 349.837 0.225246 345.743 4.57291C345.316 4.95485 344.914 5.36528 344.541 5.80145C342.338 8.45647 341.392 11.9442 339.136 14.5923C338.987 14.7698 338.819 14.9336 338.656 15.1042C334.238 19.097 327.354 19.9297 322.443 23.5129C321.577 24.1562 320.766 24.8707 320.017 25.6492C318.038 27.6305 316.264 29.8099 314.721 32.1536C312.512 35.2933 310.242 38.5625 309.539 42.3096C308.127 49.8173 313.187 56.936 314.126 64.4916C316.221 81.3976 297.703 96.3995 301.21 113.08C302.145 117.178 304.211 120.925 307.168 123.885C299.946 130.491 293.799 136.9 293.799 136.9V137.283H292.657L292.772 138.648H292.657L293.285 146.053L292.657 156.837C292.657 156.837 292.657 156.953 292.657 157.171V157.226V157.519C292.657 157.519 292.657 157.635 292.657 157.854H292.697C292.907 161.806 293.738 176.016 294.724 179.012C295.886 182.486 296.474 199.645 296.474 199.645C296.474 199.645 297.757 223.895 298.933 227.103C300.108 230.31 298.44 241.961 304.54 244.712C306.325 246.095 308.438 246.98 310.668 247.278C310.357 249.831 310.553 251.68 311.559 252.26C311.99 252.516 312.478 252.657 312.978 252.67C312.564 253.29 312.196 253.94 311.877 254.615C309.455 254.36 307.076 253.793 304.797 252.929C298.244 250.199 276.497 244.056 270.181 248.377C263.864 252.697 248.664 256.615 255.683 274.005C262.702 291.396 265.972 291.833 265.972 291.833C268.132 293.418 270.028 295.342 271.586 297.532C273.694 300.733 293.332 308.057 298.244 308.057C300.331 308.024 302.419 308.129 304.493 308.37C304.493 308.37 299.163 313.094 299.872 315.837C300.581 318.581 298.251 340.545 298.251 340.545C298.251 340.545 303.655 346.046 305.966 338.831L306.047 338.941C306.479 339.534 308.817 342.217 313.214 338.831C315.014 337.452 316.926 336.228 318.93 335.173L340.224 332.129C342.444 331.989 344.67 331.973 346.892 332.081C350.269 332.361 353.587 330.341 355.674 328.778C360.085 330.471 365.044 332.32 367.402 332.996C372.185 334.361 394.168 340.319 399.309 338.456C400.378 338.027 401.328 337.343 402.079 336.463L406.984 336.62L404.687 337.084C404.687 337.084 409.159 337.159 415.239 337.241L414.982 337.391L422.61 337.323C433.77 337.425 446.308 337.46 447.957 337.084C450.538 336.504 463.948 336.914 467.9 337.084H469.001C469.001 337.084 483.735 334.115 477.655 319.011C472.98 307.408 458.611 304.036 452.233 303.108C454.03 302.746 455.577 302.467 456.604 302.303C461.056 301.62 469.703 297.525 470.406 296.126C471.109 294.727 478.358 290.666 480.229 288.352C482.1 286.038 487.444 269.637 483.005 257.509ZM360.964 291.451L360.241 291.69L359.754 291.853L358.822 292.782C358.079 292.277 357.282 291.744 356.451 291.198C357.917 291.287 359.423 291.376 360.964 291.451Z" fill="url(#paint0_linear)"/>
<path d="M404.038 219.486C404.038 219.486 414.374 246.786 420.252 244.056C426.129 241.326 424.535 229.723 425.656 226.543C426.778 223.362 428.021 199.242 428.021 199.242C428.021 199.242 428.588 182.179 429.71 178.725C430.75 175.552 431.595 159.546 431.736 157.028C431.736 156.81 431.736 156.694 431.736 156.694L430.622 136.9L424.312 135.31L409.679 140.77L407.652 152.462L406.862 157.028L406.524 158.973L404.038 219.486Z" fill="#B8977E"/>
<path opacity="0.1" d="M407.443 214.913C407.443 214.913 417.306 223.069 420.279 223.785C423.251 224.502 425.075 230.863 425.075 230.863" fill="#76323F"/>
<path d="M323.206 220.68C323.206 220.68 312.87 247.981 306.992 245.251C301.115 242.521 302.709 230.918 301.588 227.737C300.466 224.557 299.223 200.436 299.223 200.436C299.223 200.436 298.656 183.373 297.535 179.92C296.494 176.746 295.65 160.741 295.508 158.222C295.508 158.004 295.508 157.888 295.508 157.888L296.629 138.095L302.939 136.505L317.572 141.965L319.599 153.656L320.389 158.222L320.727 160.168L323.206 220.68Z" fill="#B8977E"/>
<path d="M390.513 74.5792H367.442V110.91H390.513V74.5792Z" fill="#3E373A"/>
<path opacity="0.1" d="M390.513 74.5792H367.442V110.91H390.513V74.5792Z" fill="#76323F"/>
<path d="M319.153 247.872C319.153 247.872 311.269 256.628 314.194 258.219C317.119 259.809 336.042 289.615 336.042 289.615C336.042 289.615 398.194 297.348 409.916 285.745C421.637 274.142 421.4 253.414 421.4 253.414C421.4 253.414 411.983 255.461 410.956 254.349C409.929 253.236 404.288 247.872 404.288 247.872C404.288 247.872 324.557 242.985 319.153 247.872Z" fill="#4B4B5B"/>
<path opacity="0.02" d="M319.153 247.872C319.153 247.872 311.269 256.628 314.194 258.219C317.119 259.809 336.042 289.615 336.042 289.615C336.042 289.615 398.194 297.348 409.916 285.745C421.637 274.142 421.4 253.414 421.4 253.414C421.4 253.414 411.983 255.461 410.956 254.349C409.929 253.236 404.288 247.872 404.288 247.872C404.288 247.872 324.557 242.985 319.153 247.872Z" fill="#76323F"/>
<path d="M431.041 137.187L410.774 153.568L404.646 154.018L402.397 154.182L364.612 156.98L325.429 154.086L319.599 153.656L312.168 153.11L296.629 138.095C296.629 138.095 307.628 126.192 317.261 118.158C321.058 114.985 324.645 112.418 327.26 111.408L327.706 111.251C329.35 110.603 330.818 109.569 331.989 108.234C339.596 100.31 346.628 80.7561 346.628 80.7561C346.628 80.7561 380.184 63.2426 376.13 86.2163C372.077 109.19 391.216 103.511 391.216 103.511L397.526 106.419L400.019 107.572L406.376 110.514L420.718 117.162C431.973 122.397 431.041 137.187 431.041 137.187Z" fill="#B8977E"/>
<path opacity="0.1" d="M363.038 99.464C379.705 99.464 393.216 85.8139 393.216 68.9757C393.216 52.1375 379.705 38.4874 363.038 38.4874C346.371 38.4874 332.86 52.1375 332.86 68.9757C332.86 85.8139 346.371 99.464 363.038 99.464Z" fill="#76323F"/>
<path opacity="0.1" d="M431.088 158.905H295.508C295.508 158.686 295.508 158.57 295.508 158.57L296.629 138.777C296.629 138.777 307.628 126.874 317.261 118.841L402.383 115.428L406.342 111.21L420.684 117.858C431.946 123.086 431.041 137.876 431.041 137.876C431.041 137.876 432.581 155.015 431.088 158.905Z" fill="#76323F"/>
<path d="M431.088 158.222H295.508C295.508 158.004 295.508 157.888 295.508 157.888L296.629 138.095C296.629 138.095 307.628 126.192 317.261 118.158L402.383 114.746L406.342 110.528L420.684 117.175C431.946 122.404 431.041 137.194 431.041 137.194C431.041 137.194 432.581 154.332 431.088 158.222Z" fill="#76323F"/>
<path opacity="0.1" d="M341.305 102.72C341.305 102.72 362.693 130.253 391.182 102.153C419.671 74.0537 394.337 164.829 394.337 164.829L332.86 172.2L341.305 102.72Z" fill="#76323F"/>
<path d="M341.305 104.085C341.305 104.085 362.693 131.618 391.182 103.518C419.671 75.4187 394.337 166.194 394.337 166.194L332.86 173.565L341.305 104.085Z" fill="#76323F"/>
<path opacity="0.1" d="M399.985 108.917L402.248 143.787L404.673 155.39L406.524 164.263C406.524 164.263 411.253 232.515 409.902 235.928C408.551 239.34 410.578 242.07 410.861 243.886C411.145 245.701 410.578 250.261 410.8 252.308C411.023 254.356 410.8 255.263 405.626 254.533C400.451 253.803 393.236 252.533 393.236 252.533C393.236 252.533 374.995 253.898 368.692 251.626C362.389 249.353 350.452 249.346 350.452 249.346C350.452 249.346 332.434 249.803 326.584 249.121C320.733 248.438 317.572 256.403 313.748 254.124C309.924 251.844 318.247 229.785 320.95 223.41C323.652 217.035 317.349 200.887 317.349 200.887L325.456 155.451L327.259 145.152V112.773L327.705 112.616C329.35 111.968 330.818 110.934 331.988 109.599L334.015 142.183L397.519 144.463V107.791" fill="#76323F"/>
<path d="M399.985 107.552L402.248 142.422L404.673 154.025L406.524 162.898C406.524 162.898 411.253 231.15 409.902 234.563C408.551 237.975 410.578 240.705 410.861 242.521C411.145 244.336 410.578 248.895 410.8 250.943C411.023 252.991 410.8 253.898 405.626 253.168C400.451 252.438 393.236 251.168 393.236 251.168C393.236 251.168 374.995 252.533 368.692 250.261C362.389 247.988 350.452 247.981 350.452 247.981C350.452 247.981 332.434 248.438 326.584 247.756C320.733 247.073 317.572 255.038 313.748 252.759C309.924 250.479 318.247 228.42 320.95 222.045C323.652 215.67 317.349 199.522 317.349 199.522L325.456 154.086L327.259 143.787V111.408L327.705 111.251C329.35 110.603 330.818 109.569 331.988 108.234L334.015 140.818L397.519 143.098V106.426" fill="#76323F"/>
<path opacity="0.1" d="M407.288 34.7813C406.903 33.3549 406.369 31.8738 405.261 30.9183C404.203 30.1508 402.981 29.6457 401.694 29.444C398.613 28.6254 395.48 28.0188 392.317 27.6285C391.865 26.113 391.182 24.6782 390.29 23.3764C383.67 13.9303 373.874 5.02335 362.349 3.00991C356.316 1.952 349.324 2.9007 345.46 7.70566C343.338 10.347 342.426 13.8484 340.285 16.442C336.157 21.479 328.705 22.1001 323.504 25.9973C320.727 28.0448 318.714 31.0138 316.748 33.8941C314.62 37.0132 312.431 40.262 311.755 43.9886C310.404 51.4349 315.275 58.5331 316.174 66.0477C318.2 82.8582 300.365 97.7713 303.736 114.357C305.702 124.028 314.546 130.84 323.693 134.293C326.915 135.515 330.597 136.73 332.104 139.856C332.779 141.221 332.894 142.797 333.529 144.176C335.664 148.776 342.683 148.954 346.453 145.603C350.222 142.251 351.411 136.832 351.857 131.775C353.668 109.688 344.912 87.8679 345.933 65.7269C346.237 59.0314 348.101 51.4349 354.039 48.4045C362.031 44.3093 371.645 51.1346 380.441 49.831C384.603 60.0629 385.487 71.3555 382.967 82.1211C381.569 88.0113 379.15 93.724 378.975 99.7984C378.711 109.047 383.65 117.496 387.919 125.673C388.835 127.202 389.448 128.896 389.723 130.662C389.79 132.454 389.46 134.237 388.757 135.883C386.345 142.442 382.184 148.531 381.711 155.513C381.572 156.328 381.754 157.165 382.217 157.847C382.693 158.302 383.308 158.581 383.96 158.639C391.257 159.901 397.566 153.37 401.127 146.811C405.096 139.566 407.409 131.516 407.896 123.25C408.632 109.354 403.701 95.6828 404.005 81.773C404.356 65.959 411.429 50.0357 407.288 34.7813Z" fill="#76323F"/>
<path d="M407.963 34.0988C407.578 32.6724 407.044 31.1913 405.936 30.2358C404.878 29.4683 403.656 28.9632 402.369 28.7615C399.288 27.9429 396.155 27.3363 392.992 26.946C392.541 25.4305 391.857 23.9957 390.966 22.6939C384.345 13.2478 374.549 4.34086 363.024 2.32741C356.991 1.2695 349.999 2.21821 346.135 7.02317C344.014 9.66453 343.102 13.1659 340.96 15.7595C336.832 20.7965 329.381 21.4176 324.179 25.3148C321.402 27.3623 319.389 30.3313 317.423 33.2116C315.295 36.3307 313.106 39.5795 312.431 43.3061C311.08 50.7524 315.95 57.8506 316.849 65.3652C318.876 82.1757 301.041 97.0888 304.412 113.674C306.378 123.345 315.221 130.157 324.368 133.611C327.59 134.832 331.272 136.047 332.779 139.173C333.454 140.538 333.569 142.115 334.204 143.494C336.339 148.094 343.358 148.271 347.128 144.92C350.898 141.569 352.087 136.15 352.533 131.092C354.343 109.006 345.588 87.1854 346.608 65.0444C346.912 58.3489 348.776 50.7524 354.715 47.722C362.707 43.6268 372.32 50.4521 381.116 49.1485C385.278 59.3804 386.162 70.673 383.643 81.4386C382.244 87.3288 379.826 93.0415 379.65 99.1159C379.386 108.364 384.325 116.814 388.594 124.99C389.511 126.519 390.123 128.214 390.398 129.98C390.465 131.771 390.135 133.555 389.432 135.201C387.02 141.76 382.859 147.848 382.386 154.83C382.247 155.645 382.429 156.483 382.893 157.164C383.369 157.619 383.983 157.898 384.636 157.956C391.932 159.219 398.242 152.687 401.802 146.128C405.771 138.884 408.084 130.833 408.571 122.567C409.307 108.671 404.376 95.0003 404.68 81.0905C405.031 65.2765 412.104 49.3532 407.963 34.0988Z" fill="#3E373A"/>
<path d="M393.04 336.299L419.84 337.166L415.996 317.086L395.465 319.059L393.04 336.299Z" fill="#C3C7D9"/>
<path d="M476.081 288.707C474.277 290.98 467.299 295.075 466.623 296.44C465.947 297.805 457.618 301.9 453.335 302.583C449.051 303.265 435.547 306.227 433.067 307.818C431.291 308.964 417.029 312.595 407.659 314.609C405.121 315.215 402.553 315.682 399.965 316.008C395.911 316.233 351.553 300.992 351.553 300.992L360.106 292.12L360.579 291.956C362.997 291.13 374.171 287.315 380.373 285.499C387.358 283.452 395.465 275.036 395.465 275.036C395.465 275.036 407.396 270.941 408.977 270.484C410.557 270.026 404.923 254.56 404.923 254.56C404.923 254.56 430.818 250.929 440.951 247.851C451.085 244.773 474.507 245.913 478.783 257.973C483.06 270.033 477.912 286.434 476.081 288.707Z" fill="#4B4B5B"/>
<path d="M358.079 327.154C358.079 327.154 352.904 332.614 347.722 332.163C342.541 331.713 324.422 333.528 324.422 333.528C321.139 334.852 318.064 336.652 315.295 338.872C311.059 342.244 308.81 339.555 308.391 338.982L308.317 338.872C306.06 346.046 300.885 340.579 300.885 340.579C300.885 340.579 303.135 318.738 302.446 316.008C301.757 313.278 306.898 308.589 306.898 308.589L312.978 307.026L328.381 303.04L350.452 310.773L358.079 327.154Z" fill="#3E373A"/>
<path opacity="0.1" d="M312.951 307.026L308.391 338.982L308.317 338.872C306.06 346.046 300.885 340.579 300.885 340.579C300.885 340.579 303.135 318.738 302.446 316.008C301.757 313.278 306.898 308.589 306.898 308.589L312.951 307.026Z" fill="#76323F"/>
<path opacity="0.1" d="M344.824 216.128C344.824 216.128 356.755 220.223 367.118 216.128H344.824Z" fill="#76323F"/>
<path opacity="0.1" d="M385.554 223.867C385.554 223.867 390.506 226.365 394.337 223.867H385.554Z" fill="#76323F"/>
<path opacity="0.1" d="M385.554 229.792C385.554 229.792 393.884 230.918 395.465 228.645L385.554 229.792Z" fill="#76323F"/>
<path opacity="0.1" d="M382.852 242.521C382.852 242.521 398.499 240.473 402.383 237.743L382.852 242.521Z" fill="#76323F"/>
<path opacity="0.1" d="M335.11 237.743C335.11 237.743 343.892 242.746 350.425 242.521L335.11 237.743Z" fill="#76323F"/>
<path opacity="0.1" d="M407.652 314.609C405.115 315.215 402.546 315.682 399.958 316.008C395.904 316.233 351.546 300.992 351.546 300.992L360.099 292.12L360.572 291.956C361.923 292.918 363.031 293.744 363.821 294.372C367.544 297.334 371.138 293.464 372.489 293.464C373.84 293.464 385.548 303.245 385.548 303.245C385.548 303.245 396.357 305.75 398.161 308.022C399.965 310.295 406.268 309.845 407.389 311.435C407.727 311.926 407.767 313.135 407.652 314.609Z" fill="#76323F"/>
<path d="M324.422 255.489C324.422 255.489 313.491 256.123 307.188 253.441C300.885 250.759 279.943 244.568 273.862 248.916C267.782 253.264 253.143 257.106 259.898 274.401C266.654 291.696 269.809 292.147 269.809 292.147C271.899 293.731 273.724 295.643 275.214 297.812C277.24 300.999 296.156 308.275 300.885 308.275C305.614 308.275 313.944 308.275 325.652 316.465C337.359 324.655 347.945 325.57 347.945 325.57C347.945 325.57 362.808 331.713 367.436 333.078C372.063 334.443 393.209 340.354 398.167 338.538C403.126 336.722 406.274 325.338 406.274 325.338C406.274 325.338 408.524 315.1 407.396 313.51C406.267 311.92 399.964 312.37 398.167 310.097C396.37 307.825 385.554 305.32 385.554 305.32C385.554 305.32 373.874 295.532 372.523 295.532C371.172 295.532 367.578 299.395 363.855 296.44C356.44 290.891 348.65 285.874 340.541 281.425C331.989 276.872 324.422 255.489 324.422 255.489Z" fill="#4B4B5B"/>
<path opacity="0.1" d="M302.446 262.089C304.392 261.687 306.404 261.745 308.324 262.257C310.245 262.77 312.022 263.724 313.518 265.044C318.923 269.596 337.109 278.735 337.109 278.735" fill="#76323F"/>
<path opacity="0.1" d="M437.573 261.802C437.573 261.802 413.476 265.488 408.977 270.491L437.573 261.802Z" fill="#76323F"/>
<path d="M465.272 337.166H464.211C460.401 337.03 447.491 336.62 445.005 337.166C442.079 337.849 403.342 337.166 403.342 337.166L410.915 335.576C410.915 335.576 408.105 325.625 409.889 324.799C409.889 324.799 399.755 318.055 407.396 313.503C415.036 308.951 423.272 310.869 423.272 310.869L442.451 304.303L446.133 303.04C446.133 303.04 467.751 304.18 473.602 319.195C479.452 334.211 465.272 337.166 465.272 337.166Z" fill="#3E373A"/>
<path opacity="0.1" d="M465.272 337.166H464.211C470.501 331.924 484.728 315.967 442.451 304.337L446.133 303.074C446.133 303.074 467.751 304.214 473.602 319.229C479.452 334.245 465.272 337.166 465.272 337.166Z" fill="#76323F"/>
<path d="M425.528 319.475C426.181 319.475 426.71 318.94 426.71 318.281C426.71 317.621 426.181 317.086 425.528 317.086C424.875 317.086 424.346 317.621 424.346 318.281C424.346 318.94 424.875 319.475 425.528 319.475Z" fill="#4B4B5B"/>
<path d="M418.658 321.448C419.311 321.448 419.84 320.913 419.84 320.253C419.84 319.594 419.311 319.059 418.658 319.059C418.005 319.059 417.475 319.594 417.475 320.253C417.475 320.913 418.005 321.448 418.658 321.448Z" fill="#4B4B5B"/>
<g opacity="0.1">
<path opacity="0.1" d="M385.183 67.8504C385.445 60.3433 384.123 52.8656 381.305 45.9142C372.523 47.2383 362.903 40.3926 354.904 44.4877C348.986 47.5181 347.128 55.1146 346.797 61.8101C346.716 63.5778 346.702 65.3456 346.736 67.1133C346.736 66.4854 346.736 65.8506 346.797 65.2227C347.108 58.5272 348.966 50.9307 354.904 47.9003C362.903 43.8052 372.509 50.6304 381.305 49.3268C383.692 55.2149 385.005 61.4903 385.183 67.8504Z" fill="#76323F"/>
<path opacity="0.1" d="M317.126 66.6006C317.242 65.1134 317.212 63.6183 317.038 62.1369C316.322 56.1307 313.073 50.3906 312.485 44.5346C311.728 51.5987 316.18 58.383 317.038 65.5495C317.126 65.918 317.126 66.2456 317.126 66.6006Z" fill="#76323F"/>
<path opacity="0.1" d="M352.722 127.85C352.303 132.914 351.121 138.327 347.317 141.685C343.514 145.043 336.508 144.859 334.394 140.258C333.718 138.893 333.617 137.303 332.961 135.938C331.462 132.812 327.773 131.597 324.551 130.375C315.397 126.915 306.567 120.138 304.601 110.439C304.425 109.56 304.306 108.671 304.243 107.777C304.077 109.809 304.197 111.854 304.601 113.852C306.567 123.523 315.41 130.328 324.551 133.788C327.773 135.01 331.462 136.225 332.961 139.351C333.637 140.716 333.752 142.292 334.394 143.671C336.522 148.271 343.541 148.449 347.317 145.097C351.094 141.746 352.269 136.327 352.722 131.263C352.928 128.597 352.997 125.923 352.931 123.25C352.931 124.799 352.843 126.328 352.722 127.85Z" fill="#76323F"/>
<path opacity="0.1" d="M404.903 77.8554C404.903 78.845 404.903 79.8278 404.903 80.8107C405.281 68.1158 409.889 55.3526 409.436 42.9238C409.085 54.4175 405.16 66.1706 404.903 77.8554Z" fill="#76323F"/>
<path opacity="0.1" d="M390.405 129.208C390.571 128.399 390.624 127.569 390.561 126.744C390.288 124.978 389.676 123.283 388.757 121.755C384.852 114.247 380.4 106.562 379.873 98.2286C379.873 98.5835 379.826 98.9112 379.819 99.2934C379.549 108.535 384.487 116.991 388.757 125.168C389.482 126.434 390.037 127.793 390.405 129.208Z" fill="#76323F"/>
<path opacity="0.1" d="M408.787 119.332C408.283 127.601 405.954 135.651 401.971 142.893C398.404 149.452 392.101 155.984 384.798 154.721C384.144 154.664 383.529 154.382 383.055 153.922C382.918 153.766 382.81 153.586 382.737 153.39C382.656 153.922 382.589 154.462 382.548 155.008C382.409 155.821 382.591 156.656 383.055 157.335C383.529 157.795 384.144 158.077 384.798 158.134C392.101 159.396 398.404 152.865 401.971 146.306C405.954 139.064 408.283 131.014 408.787 122.745C408.869 121.148 408.875 119.557 408.828 117.967C408.814 118.424 408.814 118.875 408.787 119.332Z" fill="#76323F"/>
</g>
<path opacity="0.1" d="M409.888 324.799C409.888 324.799 426.987 332.047 438.262 316.008" stroke="#76323F" stroke-miterlimit="10"/>
<path opacity="0.1" d="M413.253 337.466C413.253 337.466 427.217 328.293 445.005 337.166" stroke="#76323F" stroke-miterlimit="10"/>
<path opacity="0.1" d="M319.781 335.385C319.781 335.385 325.645 322.021 341.305 332.211" stroke="#76323F" stroke-miterlimit="10"/>
<path opacity="0.1" d="M300.771 137.754L312.728 126.833C312.728 126.833 359.092 123.762 361.011 139.685C361.011 139.685 377.448 120.806 412.017 125.011L426.643 136.778L386.217 154.701L346.932 168.467L317.998 155.383L300.771 137.754Z" fill="#76323F"/>
<path d="M300.771 138.436L312.728 127.516C312.728 127.516 359.092 124.444 361.011 140.368C361.011 140.368 377.448 121.489 412.017 125.693L426.643 137.46L386.217 155.383L346.932 169.15L317.998 156.066L300.771 138.436Z" fill="#D5D6DB"/>
<path opacity="0.1" d="M295.481 139.801L300.77 203.733L356.843 206.579L354.411 142.92L354.363 141.849L295.481 139.801Z" fill="#76323F"/>
<path d="M295.481 138.436L300.77 202.368L356.843 205.214L354.411 141.555L354.363 140.484L295.481 138.436Z" fill="#D7CEC7"/>
<path opacity="0.1" d="M429.21 138.436L371.368 147.2V211.418L427.893 203.166L429.21 138.436Z" fill="#76323F"/>
<path d="M429.21 137.071L371.368 145.835V210.053L427.893 201.801L429.21 137.071Z" fill="#D7CEC7"/>
<path opacity="0.3" d="M415.57 152.742L384.325 156.25L385.007 167.006L415.55 163.635L415.57 152.742Z" fill="white"/>
<path d="M303.811 236.603L306.993 245.251C306.993 245.251 311.722 249.346 316.896 247.298C322.071 245.251 326.584 244.234 328.834 242.241C331.083 240.248 334.238 230.235 334.238 230.235C334.238 230.235 337.393 219.315 340.541 216.585C343.69 213.855 352.026 176.241 340.541 179.92C329.057 183.599 320.274 217.725 320.274 217.725C320.274 217.725 318.248 220.223 315.322 220.455C312.397 220.687 306.54 219.997 305.412 222.502C304.284 225.007 300.433 231.6 303.811 236.603Z" fill="#B8977E"/>
<path opacity="0.1" d="M371.368 147.193C368.406 147.867 365.33 147.832 362.384 147.09C359.439 146.348 356.706 144.92 354.404 142.92L356.843 206.572C356.843 206.572 362.585 212.851 371.368 211.418V147.193Z" fill="#76323F"/>
<path d="M371.368 145.828C368.406 146.502 365.33 146.467 362.384 145.725C359.439 144.983 356.706 143.555 354.404 141.555L356.843 205.207C356.843 205.207 362.585 211.486 371.368 210.053V145.828Z" fill="#D7CEC7"/>
<path opacity="0.1" d="M371.368 145.828C368.406 146.502 365.33 146.467 362.384 145.725C359.439 144.983 356.706 143.555 354.404 141.555L356.843 205.207C356.843 205.207 362.585 211.486 371.368 210.053V145.828Z" fill="#76323F"/>
<path opacity="0.1" d="M372.719 138.654C372.719 138.654 396.249 131.386 402.383 132.409L372.719 138.654Z" fill="#76323F"/>
<path opacity="0.1" d="M346.399 135.481C346.399 135.481 323.591 130.021 319.781 131.57L346.399 135.481Z" fill="#76323F"/>
<path opacity="0.1" d="M387.554 139.562C387.554 139.562 403.288 133.733 408.977 136.505L387.554 139.562Z" fill="#76323F"/>
<path opacity="0.1" d="M379.63 285.779C382.068 283.929 384.663 282.301 387.385 280.913C391.439 278.94 398.87 273.821 398.87 273.821" fill="#76323F"/>
<path opacity="0.1" d="M319.781 216.128C319.781 216.128 309.911 224.284 306.945 225C303.979 225.717 302.149 232.078 302.149 232.078" fill="#76323F"/>
<path d="M423.407 235.388L420.259 244.056C420.259 244.056 415.53 248.152 410.348 246.104C405.166 244.056 400.667 243.039 398.411 241.046C396.154 239.054 393.006 229.041 393.006 229.041C393.006 229.041 389.858 218.121 386.703 215.39C383.548 212.66 375.218 175.047 386.703 178.725C398.188 182.404 406.97 216.53 406.97 216.53C406.97 216.53 408.997 219.028 411.922 219.26C414.847 219.492 420.704 218.803 421.833 221.308C422.961 223.813 426.785 230.406 423.407 235.388Z" fill="#B8977E"/>
<path opacity="0.1" d="M417.887 219.445C417.887 219.445 424.339 223.635 424.312 228.645L417.887 219.445Z" fill="#76323F"/>
<path d="M363.146 97.9693C379.813 97.9693 393.324 84.3192 393.324 67.481C393.324 50.6428 379.813 36.9927 363.146 36.9927C346.479 36.9927 332.968 50.6428 332.968 67.481C332.968 84.3192 346.479 97.9693 363.146 97.9693Z" fill="#B8977E"/>
<path d="M344.196 59.2976C347.858 58.7174 351.067 56.5675 354.566 55.3321C362.396 52.5542 371.057 54.4585 378.981 56.9633C382.021 57.9257 385.109 59.0109 388.297 59.0109C391.486 59.0109 394.871 57.6936 396.499 54.9158C397.999 52.3631 397.708 49.0461 396.445 46.3638C395.181 43.6814 393.067 41.5247 390.932 39.4908C383.906 32.7884 375.191 26.5228 365.551 27.2053C361.673 27.4852 357.964 28.8844 354.397 30.4337C349.906 32.3891 345.534 34.6135 341.305 37.0951C338.055 38.9993 332.036 41.5451 330.165 45.026C325.908 52.8682 337.576 60.3486 344.196 59.2976Z" fill="#3E373A"/>
<path opacity="0.1" d="M396.499 52.0492C394.871 54.827 391.486 56.1443 388.297 56.1443C385.109 56.1443 382.021 55.1 378.974 54.1377C371.05 51.6328 362.396 49.7218 354.559 52.5065C351.067 53.7418 347.851 55.9191 344.189 56.4651C338.852 57.3114 330.259 52.6157 329.327 46.6436C328.28 53.5439 338.244 59.4545 344.189 58.5126C347.851 57.9325 351.067 55.7826 354.559 54.554C362.396 51.7693 371.05 53.6804 378.974 56.1852C382.021 57.1476 385.102 58.2328 388.297 58.1919C391.493 58.1509 394.871 56.8814 396.499 54.0967C397.343 52.5818 397.675 50.8302 397.445 49.1075C397.339 50.1447 397.017 51.1474 396.499 52.0492Z" fill="#76323F"/>
<path d="M641.4 421.942C641.4 421.942 645.406 427.232 639.549 435.224C633.691 443.216 628.868 449.96 630.813 454.942C630.813 454.942 639.65 440.104 646.838 439.893C654.026 439.681 649.297 430.863 641.4 421.942Z" fill="#D7CEC7"/>
<path opacity="0.1" d="M641.4 421.942C641.748 422.453 642.024 423.012 642.217 423.601C649.229 431.928 652.972 439.701 646.223 439.893C639.94 440.077 632.408 451.427 630.604 454.287C630.662 454.518 630.732 454.746 630.813 454.97C630.813 454.97 639.65 440.131 646.838 439.92C654.026 439.708 649.297 430.863 641.4 421.942Z" fill="#76323F"/>
<path d="M648.831 428.686C648.831 430.549 648.621 432.057 648.371 432.057C648.121 432.057 647.905 430.549 647.905 428.686C647.905 426.822 648.162 427.703 648.419 427.703C648.675 427.703 648.831 426.822 648.831 428.686Z" fill="#FFD037"/>
<path d="M651.391 430.911C649.777 431.798 648.365 432.337 648.243 432.112C648.122 431.887 649.331 430.979 650.946 430.064C652.56 429.15 651.925 429.819 652.047 430.064C652.168 430.31 653.013 430.017 651.391 430.911Z" fill="#FFD037"/>
<path d="M620.227 421.942C620.227 421.942 616.221 427.232 622.078 435.224C627.936 443.216 632.759 449.96 630.807 454.942C630.807 454.942 621.977 440.104 614.782 439.893C607.587 439.681 612.35 430.863 620.227 421.942Z" fill="#D7CEC7"/>
<path opacity="0.1" d="M620.227 421.942C619.878 422.453 619.603 423.012 619.41 423.601C612.397 431.928 608.655 439.701 615.404 439.893C621.68 440.077 629.219 451.427 631.023 454.287C630.966 454.519 630.894 454.747 630.807 454.97C630.807 454.97 621.977 440.131 614.782 439.92C607.587 439.708 612.35 430.863 620.227 421.942Z" fill="#76323F"/>
<path d="M612.782 428.686C612.782 430.549 612.985 432.057 613.242 432.057C613.499 432.057 613.708 430.549 613.708 428.686C613.708 426.822 613.445 427.703 613.195 427.703C612.945 427.703 612.782 426.822 612.782 428.686Z" fill="#FFD037"/>
<path d="M610.229 430.911C611.843 431.798 613.255 432.337 613.377 432.112C613.498 431.887 612.289 430.979 610.675 430.064C609.06 429.15 609.695 429.819 609.573 430.064C609.452 430.31 608.607 430.017 610.229 430.911Z" fill="#FFD037"/>
<path opacity="0.1" d="M630.814 495.429C653.946 495.429 672.699 492.523 672.699 488.939C672.699 485.354 653.946 482.448 630.814 482.448C607.681 482.448 588.928 485.354 588.928 488.939C588.928 492.523 607.681 495.429 630.814 495.429Z" fill="#D7CEC7"/>
<path opacity="0.1" d="M353.974 463.403L494.094 403C494.094 403 501.924 404.706 496.857 410.508C491.79 416.309 356.676 469.205 356.676 469.205L103 408.46L353.974 463.403Z" fill="#76323F"/>
<path opacity="0.1" d="M105.376 354C105.376 354 89.5407 384.297 107.781 412.281L358.755 467.224C358.755 467.224 343.183 443.069 359.586 409.585L280.22 392.228L105.376 354Z" fill="#76323F"/>
</g>
<defs>
<linearGradient id="paint0_linear" x1="369.293" y1="342.572" x2="369.293" y2="1.19174e-05" gradientUnits="userSpaceOnUse">
<stop stop-color="#808080" stop-opacity="0.25"/>
<stop offset="0.54" stop-color="#808080" stop-opacity="0.12"/>
<stop offset="1" stop-color="#808080" stop-opacity="0.1"/>
</linearGradient>
<clipPath id="clip0">
<rect width="691" height="555" fill="white"/>
</clipPath>
</defs>
</svg>
