<svg width="104" height="21" viewBox="0 0 104 21" fill="none" xmlns="http://www.w3.org/2000/svg">
<path d="M0 20H103" stroke="#B8977E" stroke-width="2"/>
<path d="M4.61914 13.4111H11.4619V16H1.39648V0.359375H4.61914V13.4111ZM25.4805 8.53418C25.4805 10.0739 25.2083 11.4238 24.6641 12.584C24.1198 13.7441 23.3392 14.6393 22.3223 15.2695C21.3125 15.8997 20.1523 16.2148 18.8418 16.2148C17.5456 16.2148 16.389 15.9033 15.3721 15.2803C14.3551 14.6572 13.5674 13.7692 13.0088 12.6162C12.4502 11.4561 12.1673 10.124 12.1602 8.62012V7.84668C12.1602 6.30697 12.4359 4.95345 12.9873 3.78613C13.5459 2.61165 14.3301 1.71289 15.3398 1.08984C16.3568 0.459635 17.5169 0.144531 18.8203 0.144531C20.1237 0.144531 21.2803 0.459635 22.29 1.08984C23.307 1.71289 24.0911 2.61165 24.6426 3.78613C25.2012 4.95345 25.4805 6.30339 25.4805 7.83594V8.53418ZM22.2148 7.8252C22.2148 6.18522 21.9212 4.93913 21.334 4.08691C20.7467 3.2347 19.9089 2.80859 18.8203 2.80859C17.7389 2.80859 16.9046 3.23112 16.3174 4.07617C15.7301 4.91406 15.4329 6.14583 15.4258 7.77148V8.53418C15.4258 10.1312 15.7194 11.3701 16.3066 12.251C16.8939 13.1318 17.7389 13.5723 18.8418 13.5723C19.9232 13.5723 20.7539 13.1497 21.334 12.3047C21.9141 11.4525 22.2077 10.2135 22.2148 8.58789V7.8252ZM36.416 12.7773H30.7656L29.6914 16H26.2646L32.0869 0.359375H35.0732L40.9277 16H37.501L36.416 12.7773ZM31.6357 10.167H35.5459L33.5801 4.3125L31.6357 10.167ZM55.1074 16H51.8848L45.6113 5.70898V16H42.3887V0.359375H45.6113L51.8955 10.6719V0.359375H55.1074V16ZM76.1191 16H72.8965L66.623 5.70898V16H63.4004V0.359375H66.623L72.9072 10.6719V0.359375H76.1191V16ZM88.3438 9.22168H82.1562V13.4111H89.418V16H78.9336V0.359375H89.3965V2.96973H82.1562V6.69727H88.3438V9.22168ZM103.297 2.96973H98.5059V16H95.2832V2.96973H90.5566V0.359375H103.297V2.96973Z" fill="#76323F"/>
</svg>
